<svg xmlns="http://www.w3.org/2000/svg" viewBox="0 0 26.64 26.64"><defs><style>.cls-1{fill:#818991;}</style></defs><title>Asset 10</title><g id="Layer_2" data-name="Layer 2"><g id="Footer"><path class="cls-1" d="M13.32,16a2.66,2.66,0,1,0-2.67-2.67A2.67,2.67,0,0,0,13.32,16Z"/><polygon class="cls-1" points="19.14 10.06 19.14 7.82 19.14 7.49 18.81 7.49 16.57 7.5 16.58 10.07 19.14 10.06"/><path class="cls-1" d="M13.32,0A13.32,13.32,0,1,0,26.64,13.32,13.34,13.34,0,0,0,13.32,0Zm7.58,11.77V18A2.93,2.93,0,0,1,18,20.9H8.67A2.93,2.93,0,0,1,5.74,18V8.67A2.93,2.93,0,0,1,8.67,5.75H18a2.93,2.93,0,0,1,2.93,2.93Z"/><path class="cls-1" d="M17.46,13.32a4.14,4.14,0,1,1-8-1.55H7.22V18a1.45,1.45,0,0,0,1.45,1.45H18A1.45,1.45,0,0,0,19.42,18v-6.2H17.16A4.09,4.09,0,0,1,17.46,13.32Z"/></g></g></svg>