<svg xmlns="http://www.w3.org/2000/svg" viewBox="0 0 26.64 26.64"><defs><style>.cls-1{fill:#818991;}</style></defs><title>Asset 9</title><g id="Layer_2" data-name="Layer 2"><g id="Footer"><path class="cls-1" d="M13.32,0A13.32,13.32,0,1,0,26.64,13.32,13.34,13.34,0,0,0,13.32,0Zm5.94,10.27c0,.13,0,.26,0,.4A8.72,8.72,0,0,1,5.85,18a6.22,6.22,0,0,0,.73,0,6.15,6.15,0,0,0,3.81-1.31,3.07,3.07,0,0,1-2.86-2.13,3.11,3.11,0,0,0,.58.05,3.06,3.06,0,0,0,.81-.11,3.07,3.07,0,0,1-2.46-3s0,0,0,0a3.06,3.06,0,0,0,1.39.38,3.07,3.07,0,0,1-.95-4.09A8.71,8.71,0,0,0,13.21,11a3.07,3.07,0,0,1,5.22-2.8,6.1,6.1,0,0,0,1.95-.74A3.08,3.08,0,0,1,19,9.17a6.06,6.06,0,0,0,1.76-.48A6.19,6.19,0,0,1,19.26,10.27Z"/></g></g></svg>