<svg xmlns="http://www.w3.org/2000/svg" viewBox="0 0 25.75 25.75"><defs><style>.cls-1{fill:#818991;}</style></defs><title>Asset 11</title><g id="Layer_2" data-name="Layer 2"><g id="Footer"><path class="cls-1" d="M12.88,0A12.88,12.88,0,1,0,25.75,12.88,12.89,12.89,0,0,0,12.88,0Zm4.35,19a8.2,8.2,0,0,1-1.62.59,6.9,6.9,0,0,1-1.57.17,4.28,4.28,0,0,1-1.51-.24,3.68,3.68,0,0,1-1.26-.69,2.49,2.49,0,0,1-.72-1,4.13,4.13,0,0,1-.2-1.47V11.51H8.44v-2A5,5,0,0,0,10,8.76,3.82,3.82,0,0,0,11,7.56a5.36,5.36,0,0,0,.49-1.78h2V9h3.24v2.5H13.44V15.1a6.12,6.12,0,0,0,.08,1.51,1.3,1.3,0,0,0,.53.6,2,2,0,0,0,1.06.28,3.81,3.81,0,0,0,2.11-.69V19Z"/></g></g></svg>