<svg width="512" height="512" xmlns="http://www.w3.org/2000/svg">

 <g>
  <title>background</title>
  <rect fill="none" id="canvas_background" height="402" width="582" y="-1" x="-1"/>
 </g>
 <g>
  <title>Layer 1</title>
  <path id="svg_1" fill="#cc1417" d="m403.345,230.502c-1.957,-1.333 -3.937,-2.618 -5.939,-3.856c-6.573,-4.064 -7.003,-13.324 -0.871,-18.028c11.612,-8.911 21.179,-23.851 23.406,-39.869l3.605,-83.217c-17.353,-39.779 -58.365,-69.051 -107.527,-71.866c-67.347,-3.861 -124.502,43.406 -127.645,105.568c-1.852,36.656 8.022,64.097 32.79,82.748c6.653,5.01 5.398,15.341 -2.249,18.638c-11.106,4.788 -21.904,10.071 -32.787,15.817c-53.139,28.09 -84.697,14.937 -137.281,-15.734c-66.873,-39.011 -70.521,151.604 23.192,227.148c85.973,69.308 244.795,65.988 321.57,-0.349c76.783,-66.34 74.978,-172.493 9.736,-217z"/>
  <path id="svg_2" fill="#ce242b" d="m403.345,230.502c-1.957,-1.333 -3.937,-2.618 -5.939,-3.856c-6.573,-4.064 -7.003,-13.324 -0.871,-18.028c11.612,-8.911 21.179,-23.851 23.406,-39.869l3.605,-83.217c-17.353,-39.779 -58.365,-69.051 -107.527,-71.866c-67.347,-3.861 -124.502,43.406 -127.645,105.568c-1.852,36.656 8.022,64.097 32.79,82.748c6.653,5.01 5.398,15.341 -2.249,18.638c-1.445,0.623 -2.874,1.278 -4.309,1.918l0,275.428c67.263,4.072 136.004,-13.309 179.005,-50.464c76.781,-66.34 74.976,-172.493 9.734,-217z"/>
  <g id="svg_3">
   <path id="svg_4" fill="#F9A846" d="m417.564,168.749c65.573,0 86.853,-30.688 93.607,-53.565c3.663,-12.408 -5.255,-24.992 -18.163,-25.88l-69.885,-4.809l-10.159,23.273c-8.657,19.835 -6.935,42.669 4.6,60.981l0,0z"/>
   <ellipse id="svg_5" fill="#F9A846" ry="60.028" rx="90.579" cy="360.047" cx="214.605"/>
  </g>
  <path id="svg_6" fill="#F7920D" d="m305.186,360.046c0,33.152 -40.554,60.028 -90.581,60.028c0,-43.865 0,-90.613 0,-120.055c50.026,0 90.581,26.875 90.581,60.027z"/>
  <circle id="svg_7" fill="#444242" r="17.749" cy="96.256" cx="338.832"/>
  <g id="svg_8"/>
  <g id="svg_9"/>
  <g id="svg_10"/>
  <g id="svg_11"/>
  <g id="svg_12"/>
  <g id="svg_13"/>
  <g id="svg_14"/>
  <g id="svg_15"/>
  <g id="svg_16"/>
  <g id="svg_17"/>
  <g id="svg_18"/>
  <g id="svg_19"/>
  <g id="svg_20"/>
  <g id="svg_21"/>
  <g id="svg_22"/>
 </g>
</svg>