<svg width="512" height="512" xmlns="http://www.w3.org/2000/svg">
 <g>
  <title>background</title>
  <rect x="-1" y="-1" width="514" height="514" id="canvas_background" fill="none"/>
 </g>

 <g>
  <title>Layer 1</title>
  <path d="m403.345,230.502c-1.957,-1.333 -3.937,-2.618 -5.939,-3.856c-6.573,-4.064 -7.003,-13.324 -0.871,-18.028c11.612,-8.911 21.179,-23.851 23.406,-39.869l3.605,-83.217c-17.353,-39.779 -58.365,-69.051 -107.527,-71.866c-67.347,-3.861 -124.502,43.406 -127.645,105.568c-1.852,36.656 8.022,64.097 32.79,82.748c6.653,5.01 5.398,15.341 -2.249,18.638c-11.106,4.788 -21.904,10.071 -32.787,15.817c-53.139,28.09 -84.697,14.937 -137.281,-15.734c-66.873,-39.011 -70.521,151.604 23.192,227.148c85.973,69.308 244.795,65.988 321.57,-0.349c76.783,-66.34 74.978,-172.493 9.736,-217z" fill="#c3c9c6" id="svg_1"/>
  <path d="m403.345,230.502c-1.957,-1.333 -3.937,-2.618 -5.939,-3.856c-6.573,-4.064 -7.003,-13.324 -0.871,-18.028c11.612,-8.911 21.179,-23.851 23.406,-39.869l3.605,-83.217c-17.353,-39.779 -58.365,-69.051 -107.527,-71.866c-67.347,-3.861 -124.502,43.406 -127.645,105.568c-1.852,36.656 8.022,64.097 32.79,82.748c6.653,5.01 5.398,15.341 -2.249,18.638c-1.445,0.623 -2.874,1.278 -4.309,1.918l0,275.428c67.263,4.072 136.004,-13.309 179.005,-50.464c76.781,-66.34 74.976,-172.493 9.734,-217z" fill="#cfd6d3" id="svg_2"/>
  <g id="svg_3">
   <path d="m417.564,168.749c65.573,0 86.853,-30.688 93.607,-53.565c3.663,-12.408 -5.255,-24.992 -18.163,-25.88l-69.885,-4.809l-10.159,23.273c-8.657,19.835 -6.935,42.669 4.6,60.981l0,0z" fill="#cfd6d3" id="svg_4"/>
   <ellipse cx="214.605" cy="360.047" rx="90.579" ry="60.028" fill="#cfd6d3" id="svg_5"/>
  </g>
  <path d="m305.186,360.046c0,33.152 -40.554,60.028 -90.581,60.028c0,-43.865 0,-90.613 0,-120.055c50.026,0 90.581,26.875 90.581,60.027z" fill="#c3c9c6" id="svg_6"/>
  <circle cx="338.832" cy="96.256" r="17.749" fill="#c3c9c6" id="svg_7"/>
  <g id="svg_8"/>
  <g id="svg_9"/>
  <g id="svg_10"/>
  <g id="svg_11"/>
  <g id="svg_12"/>
  <g id="svg_13"/>
  <g id="svg_14"/>
  <g id="svg_15"/>
  <g id="svg_16"/>
  <g id="svg_17"/>
  <g id="svg_18"/>
  <g id="svg_19"/>
  <g id="svg_20"/>
  <g id="svg_21"/>
  <g id="svg_22"/>
 </g>
</svg>