<svg xmlns="http://www.w3.org/2000/svg" viewBox="0 0 21.03 19.56"><defs><style>.cls-1{fill:#ce242b;}</style></defs><title>Asset 2</title><g id="Layer_2" data-name="Layer 2"><g id="News_blocks" data-name="News blocks"><path class="cls-1" d="M21,5.83C20.69,2.45,18.3,0,15.3,0a5.66,5.66,0,0,0-4.85,2.79A5.45,5.45,0,0,0,5.73,0C2.73,0,.34,2.45,0,5.83A6,6,0,0,0,.21,8a9.52,9.52,0,0,0,2.91,4.86l7.33,6.65,7.45-6.65A9.51,9.51,0,0,0,20.82,8,6,6,0,0,0,21,5.83Zm-1,2a8.69,8.69,0,0,1-2.67,4.44l-6.91,6.17L3.67,12.3A8.7,8.7,0,0,1,1,7.86,5.25,5.25,0,0,1,.83,6v0C1.1,3,3.16.81,5.73.81a4.74,4.74,0,0,1,4.36,3l.37.88.37-.88a4.89,4.89,0,0,1,4.48-3C17.87.81,19.93,3,20.2,6A5.28,5.28,0,0,1,20,7.86Z"/><path class="cls-1" d="M6.47,2.46a4,4,0,0,0-4,4,.4.4,0,0,0,.81,0A3.24,3.24,0,0,1,6.47,3.27a.4.4,0,0,0,0-.81Z"/></g></g></svg>