<svg xmlns="http://www.w3.org/2000/svg" viewBox="0 0 29.56 42.83"><defs><style>.cls-1{fill:#cfd6d3;}.cls-2{fill:#fff;}</style></defs><title>Asset 7</title><g id="Layer_2" data-name="Layer 2"><g id="Header"><polygon class="cls-1" points="29.56 0 0 0 0 42.83 14.78 33.53 29.56 42.83 29.56 0"/><path class="cls-2" d="M24.81,16.28a10,10,0,1,1-10-10A10,10,0,0,1,24.81,16.28ZM19.1,14.86c.2-1.33-.81-2-2.2-2.52l.45-1.8-1.1-.27L15.82,12l-.88-.21L15.38,10l-1.1-.27-.45,1.8-.7-.17h0L11.62,11l-.29,1.17s.81.19.8.2a.59.59,0,0,1,.51.64l-.51,2.05.11,0-.12,0L11.41,18a.4.4,0,0,1-.5.26s-.8-.2-.8-.2l-.54,1.26,1.43.36.78.2-.45,1.82,1.1.27.45-1.8.88.23-.45,1.8,1.1.27.45-1.82c1.87.35,3.28.21,3.87-1.48a1.93,1.93,0,0,0-1-2.66,1.75,1.75,0,0,0,1.4-1.61ZM16.6,18.37c-.34,1.36-2.63.63-3.38.44l.6-2.41C14.56,16.58,17,17,16.6,18.37Zm.34-3.53c-.31,1.24-2.22.61-2.84.46l.55-2.19C15.26,13.26,17.26,13.54,16.94,14.84Z"/></g></g></svg>