<svg xmlns="http://www.w3.org/2000/svg" viewBox="0 0 14.49 14.49"><defs><style>.cls-1{fill:#ece7ea;}.cls-2{fill:#f14742;}.cls-3{fill:#fff;}.cls-4{fill:#1b4145;}.cls-5{fill:#c2b8b9;}</style></defs><title>Asset 1</title><g id="Layer_2" data-name="Layer 2"><g id="Header"><rect class="cls-1" x="4.68" y="8.07" width="3.01" height="0.48" transform="translate(-4.06 6.8) rotate(-45)"/><circle class="cls-2" cx="10.02" cy="4.47" r="4.47"/><circle class="cls-1" cx="10.02" cy="4.47" r="3.51"/><path class="cls-3" d="M8.23,2.92a.24.24,0,0,1-.17-.41A2.78,2.78,0,0,1,12,2.5a.24.24,0,0,1-.34.34,2.29,2.29,0,0,0-3.24,0A.24.24,0,0,1,8.23,2.92Z"/><path class="cls-4" d="M5.33,10.56,1.61,14.29c-.39.39-.79.16-1.18-.23s-.61-.79-.23-1.18L3.93,9.16l1.16.25Z"/><path class="cls-5" d="M5.79,10.11l-.45.45L3.93,9.16l.46-.45a1,1,0,1,1,1.41,1.41Z"/></g></g></svg>